# xmcd
#
# Track frame offsets:
#	150
#	14740
#	18190
#	41436
#	76431
#	79540
#	84088
#	96010
#	107234
#	129420
#	130610
#	142069
#	155108
#	172653
#	185385
#	186693
#
# Disc length: 2821 seconds
#
# Revision: 0
# Processed by: cddbd v1.5.2PL0 Copyright (c) Steve Scherf et al.
# Submitted via: EZCDAudioConverter 2.1.7.1
#
DISCID=c60b0310
DTITLE=V/A - Litmus (OST)
DYEAR=1900
DGENRE=
TTITLE0=Val Dusty Experiment - Rain
TTITLE1=Wayne Lynch Quote
TTITLE2=Yothu Yindi - Gapu
TTITLE3=Galaxie 500 - Listen The Snow Is Falling
TTITLE4=Derek Hynd Quote
TTITLE5=Val Dusty Experiment - Mo Walker
TTITLE6=Val Dusty Experiment - Cow
TTITLE7=Val Dusty Experiment - Time
TTITLE8=Screaming Orphans - Black Is The Colour
TTITLE9=Joel Fitzgerald Quote
TTITLE10=Val Dusty Experiment - Green Hornet
TTITLE11=Tom Curren - Fire Jam
TTITLE12=Rosie Sutherland - Elizabeth
TTITLE13=Jon Frank - Dump Swimming
TTITLE14=Hawaiian Surf Forecast
TTITLE15=Kevin Baker and The Val Dusty Experiment - Riding The Wind
EXTD=
EXTT0=
EXTT1=
EXTT2=
EXTT3=
EXTT4=
EXTT5=
EXTT6=
EXTT7=
EXTT8=
EXTT9=
EXTT10=
EXTT11=
EXTT12=
EXTT13=
EXTT14=
EXTT15=
PLAYORDER=
